<svg width="16" height="16" viewBox="0 0 16 16" fill="none" xmlns="http://www.w3.org/2000/svg">
<path d="M4.26678 7.99987L7.46678 10.6665L11.7334 5.3332M8.00011 15.4665C7.01958 15.4665 6.04864 15.2734 5.14274 14.8982C4.23685 14.5229 3.41373 13.9729 2.72038 13.2796C2.02704 12.5863 1.47705 11.7631 1.10181 10.8572C0.726578 9.95134 0.533447 8.98041 0.533447 7.99987C0.533447 7.01933 0.726578 6.0484 1.10181 5.1425C1.47705 4.2366 2.02704 3.41348 2.72038 2.72014C3.41373 2.0268 4.23685 1.4768 5.14274 1.10157C6.04864 0.726334 7.01958 0.533203 8.00011 0.533203C9.9804 0.533203 11.8796 1.31987 13.2798 2.72014C14.6801 4.12041 15.4668 6.01959 15.4668 7.99987C15.4668 9.98015 14.6801 11.8793 13.2798 13.2796C11.8796 14.6799 9.9804 15.4665 8.00011 15.4665Z" stroke="white"/>
</svg>
