<svg width="13" height="13" viewBox="0 0 13 13" fill="none" xmlns="http://www.w3.org/2000/svg">
<path d="M5.90625 8.34375L4.75 9.5C4.50625 9.74375 4.11875 9.74375 3.86875 9.50625C3.8 9.4375 3.73125 9.375 3.6625 9.30625C3.03048 8.67001 2.44756 7.9868 1.91875 7.2625C1.40625 6.55 0.99375 5.8375 0.69375 5.13125C0.4 4.41875 0.25 3.7375 0.25 3.0875C0.25 2.6625 0.325 2.25625 0.475 1.88125C0.625 1.5 0.8625 1.15 1.19375 0.8375C1.59375 0.44375 2.03125 0.25 2.49375 0.25C2.66875 0.25 2.84375 0.2875 3 0.3625C3.1625 0.4375 3.30625 0.55 3.41875 0.7125L4.86875 2.75625C4.98125 2.9125 5.0625 3.05625 5.11875 3.19375C5.175 3.325 5.20625 3.45625 5.20625 3.575C5.20625 3.725 5.1625 3.875 5.075 4.01875C4.99375 4.1625 4.875 4.3125 4.725 4.4625L4.25 4.95625C4.18125 5.025 4.15 5.10625 4.15 5.20625C4.15 5.25625 4.15625 5.3 4.16875 5.35C4.1875 5.4 4.20625 5.4375 4.21875 5.475C4.33125 5.68125 4.525 5.95 4.8 6.275C5.08125 6.6 5.38125 6.93125 5.70625 7.2625C5.76875 7.325 5.8375 7.3875 5.9 7.45C6.15 7.69375 6.15625 8.09375 5.90625 8.34375ZM12.7312 10.4563C12.7304 10.6921 12.677 10.9248 12.575 11.1375C12.4688 11.3625 12.3313 11.575 12.15 11.775C11.8438 12.1125 11.5062 12.3563 11.125 12.5125C11.1187 12.5125 11.1125 12.5187 11.1063 12.5187C10.7375 12.6687 10.3375 12.75 9.90625 12.75C9.26875 12.75 8.5875 12.6 7.86875 12.2938C7.15 11.9875 6.43125 11.575 5.71875 11.0563C5.475 10.875 5.23125 10.6937 5 10.5L7.04375 8.45625C7.21875 8.5875 7.375 8.6875 7.50625 8.75625C7.5375 8.76875 7.575 8.7875 7.61875 8.80625C7.66875 8.825 7.71875 8.83125 7.775 8.83125C7.88125 8.83125 7.9625 8.79375 8.03125 8.725L8.50625 8.25625C8.6625 8.1 8.8125 7.98125 8.95625 7.90625C9.1 7.81875 9.24375 7.775 9.4 7.775C9.51875 7.775 9.64375 7.8 9.78125 7.85625C9.91875 7.9125 10.0625 7.99375 10.2188 8.1L12.2875 9.56875C12.45 9.68125 12.5625 9.8125 12.6312 9.96875C12.6937 10.125 12.7312 10.2812 12.7312 10.4563Z" fill="#A4A5F8"/>
</svg>
