<svg width="31" height="30" viewBox="0 0 31 30" fill="none" xmlns="http://www.w3.org/2000/svg">
<path fill-rule="evenodd" clip-rule="evenodd" d="M7.80034 12.3205C10.0345 17.1853 14.0101 21.053 18.9522 23.1488L18.9679 23.1554L19.9226 23.5809C21.1385 24.1226 22.5675 23.7379 23.347 22.659L24.94 20.4544C25.0373 20.3198 25.0121 20.1325 24.8829 20.0281L22.102 17.7846C21.9638 17.6731 21.7604 17.6991 21.6546 17.8418L20.5724 19.3023C20.3095 19.657 19.8348 19.7803 19.4326 19.5983C15.7371 17.9258 12.7675 14.9561 11.095 11.2607C10.913 10.8584 11.0363 10.3838 11.391 10.1209L12.8514 9.03858C12.9941 8.93283 13.0201 8.72954 12.9086 8.59129L10.6648 5.80999C10.5605 5.68072 10.3733 5.65562 10.2387 5.75283L8.02203 7.35303C6.93604 8.13702 6.5536 9.57807 7.10793 10.7974L7.7996 12.3188L7.80034 12.3205ZM18.2124 24.8716C12.8424 22.5921 8.52318 18.3884 6.09563 13.1011L6.09416 13.098L5.40104 11.5734C4.47716 9.54118 5.11456 7.13942 6.92455 5.83278L9.14116 4.23258C10.0838 3.55207 11.3941 3.72783 12.1241 4.63269L14.3679 7.414C15.1486 8.38172 14.9668 9.80471 13.9678 10.545L13.1309 11.1652C14.5446 13.9081 16.785 16.1486 19.528 17.5623L20.1483 16.7254C20.8885 15.7265 22.3115 15.5446 23.2793 16.3254L26.0601 18.5688C26.9653 19.299 27.1409 20.6099 26.4598 21.5525L24.8668 23.7571C23.5676 25.5553 21.1859 26.1965 19.1596 25.2936L18.2124 24.8716Z" fill="#BEBEBE"/>
<path fill-rule="evenodd" clip-rule="evenodd" d="M24.8371 5.03789C25.0128 5.21371 25.1116 5.45217 25.1116 5.70081V10.4863C25.1116 11.0041 24.692 11.4238 24.1741 11.4238C23.6563 11.4238 23.2366 11.0041 23.2366 10.4863V7.96413L19.2878 11.9129C18.9217 12.279 18.3282 12.279 17.9621 11.9129C17.596 11.5468 17.596 10.9532 17.9621 10.5871L21.9108 6.63831H19.3886C18.8708 6.63831 18.4511 6.21857 18.4511 5.70081C18.4511 5.18304 18.8708 4.76331 19.3886 4.76331H24.1741C24.4228 4.76331 24.6612 4.86208 24.8371 5.03789Z" fill="#BEBEBE"/>
</svg>
