<svg width="23" height="22" viewBox="0 0 23 22" fill="none" xmlns="http://www.w3.org/2000/svg">
<path fill-rule="evenodd" clip-rule="evenodd" d="M18.347 3.69453C18.4759 3.82346 18.5484 3.99833 18.5484 4.18066V7.69005C18.5484 8.06975 18.2405 8.37755 17.8609 8.37755C17.4812 8.37755 17.1734 8.06975 17.1734 7.69005V5.84044L14.2776 8.7362C14.0091 9.00468 13.5738 9.00468 13.3053 8.7362C13.0369 8.4677 13.0369 8.03241 13.3053 7.76392L16.2011 4.86816H14.3515C13.9718 4.86816 13.664 4.56036 13.664 4.18066C13.664 3.80096 13.9718 3.49316 14.3515 3.49316H17.8609C18.0432 3.49316 18.2181 3.5656 18.347 3.69453Z" fill="white"/>
<path d="M5.08346 9.03872C6.84016 12.8648 9.96602 15.9067 13.8522 17.5558L14.4752 17.8334C15.9004 18.4684 17.5759 17.986 18.4452 16.6903L19.2593 15.4769C19.5239 15.0824 19.4433 14.551 19.0736 14.2527L16.3127 12.0254C15.9072 11.6982 15.3109 11.7745 15.0007 12.193L14.1467 13.3456C11.9551 12.2644 10.1758 10.4852 9.0947 8.2936L10.2472 7.43953C10.6658 7.12931 10.742 6.533 10.4148 6.12748L8.18745 3.36654C7.88922 2.99686 7.35801 2.91623 6.9635 3.18075L5.74173 3.99997C4.43792 4.8742 3.95816 6.56348 4.60782 7.99251L5.08274 9.03717L5.08346 9.03872Z" fill="white"/>
</svg>
