<svg width="20" height="20" viewBox="0 0 20 20" fill="none" xmlns="http://www.w3.org/2000/svg">
<path fill-rule="evenodd" clip-rule="evenodd" d="M8.3292 3.33301H11.6709C14.8209 3.33301 16.3959 3.33301 17.375 4.30967C18.05 4.98134 18.2592 5.93551 18.325 7.49051C18.3375 7.79884 18.3442 7.95384 18.2867 8.05634C18.2284 8.15884 17.9992 8.28801 17.5392 8.54467C17.2801 8.68913 17.0642 8.90016 16.914 9.15595C16.7637 9.41174 16.6845 9.70302 16.6845 9.99967C16.6845 10.2963 16.7637 10.5876 16.914 10.8434C17.0642 11.0992 17.2801 11.3102 17.5392 11.4547C17.9992 11.7122 18.2292 11.8405 18.2867 11.943C18.3442 12.0455 18.3375 12.1997 18.3242 12.508C18.2592 14.0638 18.0492 15.018 17.375 15.6897C16.3967 16.6663 14.8217 16.6663 11.6709 16.6663H8.3292C5.1792 16.6663 3.6042 16.6663 2.62503 15.6897C1.95003 15.018 1.74086 14.0638 1.67503 12.5088C1.66253 12.2005 1.65586 12.0455 1.71336 11.943C1.7717 11.8405 2.00086 11.7122 2.46086 11.4547C2.71997 11.3102 2.93581 11.0992 3.08606 10.8434C3.23632 10.5876 3.31554 10.2963 3.31554 9.99967C3.31554 9.70302 3.23632 9.41174 3.08606 9.15595C2.93581 8.90016 2.71997 8.68913 2.46086 8.54467C2.00086 8.28801 1.77086 8.15884 1.71336 8.05634C1.65586 7.95384 1.66253 7.79967 1.67586 7.49051C1.74086 5.93551 1.95086 4.98217 2.62503 4.30967C3.60336 3.33301 5.17836 3.33301 8.3292 3.33301ZM12.9567 7.05801C13.0147 7.11598 13.0608 7.18482 13.0922 7.26061C13.1236 7.3364 13.1398 7.41763 13.1398 7.49967C13.1398 7.58172 13.1236 7.66295 13.0922 7.73874C13.0608 7.81452 13.0147 7.88337 12.9567 7.94134L7.9442 12.9413C7.82658 13.0585 7.66731 13.1243 7.50128 13.1243C7.33524 13.1243 7.17598 13.0585 7.05836 12.9413C7.00031 12.8834 6.95425 12.8145 6.92283 12.7387C6.89141 12.663 6.87523 12.5817 6.87523 12.4997C6.87523 12.4176 6.89141 12.3364 6.92283 12.2606C6.95425 12.1848 7.00031 12.116 7.05836 12.058L12.07 7.05801C12.1877 6.94056 12.3471 6.87459 12.5134 6.87459C12.6796 6.87459 12.839 6.94056 12.9567 7.05801ZM12.0959 12.9163C12.2084 12.9214 12.3209 12.9036 12.4263 12.8639C12.5318 12.8243 12.6282 12.7638 12.7097 12.6859C12.7911 12.608 12.8559 12.5144 12.9002 12.4108C12.9445 12.3072 12.9673 12.1957 12.9673 12.083C12.9673 11.9703 12.9445 11.8588 12.9002 11.7552C12.8559 11.6516 12.7911 11.558 12.7097 11.4801C12.6282 11.4022 12.5318 11.3417 12.4263 11.3021C12.3209 11.2625 12.2084 11.2446 12.0959 11.2497C11.6342 11.2497 11.26 11.623 11.26 12.083C11.26 12.543 11.635 12.9163 12.0959 12.9163ZM7.91836 8.74967C8.38003 8.74967 8.7542 8.37634 8.7542 7.91634C8.7542 7.45634 8.38003 7.08301 7.91836 7.08301C7.80579 7.07797 7.69337 7.0958 7.58788 7.1354C7.48238 7.17501 7.38601 7.23558 7.30457 7.31346C7.22313 7.39134 7.15831 7.48491 7.11403 7.58853C7.06975 7.69214 7.04692 7.80366 7.04692 7.91634C7.04692 8.02902 7.06975 8.14054 7.11403 8.24415C7.15831 8.34777 7.22313 8.44134 7.30457 8.51922C7.38601 8.5971 7.48238 8.65767 7.58788 8.69728C7.69337 8.73689 7.80579 8.75471 7.91836 8.74967Z" fill="white"/>
</svg>
