<svg width="14" height="16" viewBox="0 0 14 16" fill="none" xmlns="http://www.w3.org/2000/svg">
<path d="M7 15.5645C10.864 15.5645 14 12.1755 14 7.99994C14 3.82432 10.864 0.435421 7 0.435422C3.136 0.435422 -9.49761e-07 3.82433 -6.11959e-07 7.99994C-2.74158e-07 12.1756 3.136 15.5645 7 15.5645ZM4.095 7.37208L5.306 6.93334C5.642 6.81231 5.901 6.53242 6.013 6.16932L6.419 4.86066C6.762 3.73355 8.232 3.75624 8.554 4.88336L9.919 9.63387C10.185 10.5794 9.38 11.4494 8.519 11.1619L4.116 9.68682C3.073 9.33129 3.059 7.74274 4.095 7.37208Z" fill="white"/>
</svg>
