<svg width="30" height="30" viewBox="0 0 30 30" fill="none" xmlns="http://www.w3.org/2000/svg">
<path d="M27.75 6.5C27.125 5.75 26.25 5.25 25.25 5.25H10.5C9.75 5.25 9.25 5.75 9.25 6.5C9.25 7.25 9.75 7.75 10.5 7.75H25.125C25.375 7.75 25.625 7.875 25.625 8C25.75 8.25 25.875 8.5 25.75 8.75L24 16.375C23.75 17.625 22.625 18.5 21.375 18.5H13.375C12.125 18.5 11.125 17.75 10.75 16.5L9.75 13.375L7.125 4.75C6.5 2.625 4.625 1.25 2.5 1.25C1.75 1.25 1.25 1.75 1.25 2.5C1.25 3.25 1.75 3.75 2.5 3.75C3.5 3.75 4.5 4.5 4.75 5.5L5.625 8.375L8.375 17.25C9 19.5 11 21 13.375 21H21.625C24.125 21 26.125 19.25 26.75 16.875L28.5 9.25C28.625 8.375 28.375 7.375 27.75 6.5Z" fill="#BEBEBE"/>
<path d="M12.375 22.25C10.625 22.25 9.125 23.75 9.125 25.5C9.125 27.25 10.625 28.75 12.375 28.75C14.125 28.75 15.625 27.25 15.625 25.5C15.625 23.75 14.125 22.25 12.375 22.25ZM12.375 26.25C12 26.25 11.625 25.875 11.625 25.5C11.625 25.125 12 24.75 12.375 24.75C12.75 24.75 13.125 25.125 13.125 25.5C13.125 25.875 12.75 26.25 12.375 26.25Z" fill="#BEBEBE"/>
<path d="M22.25 22.25C20.5 22.25 19 23.75 19 25.5C19 27.25 20.5 28.75 22.25 28.75C24 28.75 25.5 27.25 25.5 25.5C25.5 23.75 24 22.25 22.25 22.25ZM22.25 26.25C21.875 26.25 21.5 25.875 21.5 25.5C21.5 25.125 21.875 24.75 22.25 24.75C22.625 24.75 23 25.125 23 25.5C23 25.875 22.625 26.25 22.25 26.25Z" fill="#BEBEBE"/>
</svg>
