<svg width="20" height="20" viewBox="0 0 20 20" fill="none" xmlns="http://www.w3.org/2000/svg">
<mask id="mask0_1603_10531" style="mask-type:alpha" maskUnits="userSpaceOnUse" x="0" y="0" width="20" height="20">
<rect width="20" height="20" fill="#D9D9D9"/>
</mask>
<g mask="url(#mask0_1603_10531)">
<path d="M15.8337 15.833H6.66699C6.20866 15.833 5.81644 15.67 5.49033 15.3438C5.16366 15.0172 5.00033 14.6247 5.00033 14.1663V2.49967C5.00033 2.04134 5.16366 1.64884 5.49033 1.32217C5.81644 0.996063 6.20866 0.833008 6.66699 0.833008H12.5003L17.5003 5.83301V14.1663C17.5003 14.6247 17.3373 15.0172 17.0112 15.3438C16.6845 15.67 16.292 15.833 15.8337 15.833ZM11.667 6.66634V2.49967H6.66699V14.1663H15.8337V6.66634H11.667ZM3.33366 19.1663C2.87533 19.1663 2.4831 19.0033 2.15699 18.6772C1.83033 18.3505 1.66699 17.958 1.66699 17.4997V5.83301H3.33366V17.4997H12.5003V19.1663H3.33366Z" fill="#6365EF"/>
</g>
</svg>
