<svg width="18" height="18" viewBox="0 0 18 18" fill="none" xmlns="http://www.w3.org/2000/svg">
<mask id="mask0_499_24230" style="mask-type:alpha" maskUnits="userSpaceOnUse" x="0" y="0" width="18" height="18">
<rect width="18" height="18" fill="#D9D9D9"/>
</mask>
<g mask="url(#mask0_499_24230)">
<path d="M8.32402 14.2461H9.63652V13.3086C10.2615 13.1961 10.799 12.9523 11.249 12.5773C11.699 12.2023 11.924 11.6461 11.924 10.9086C11.924 10.3836 11.774 9.90234 11.474 9.46484C11.174 9.02734 10.574 8.64609 9.67402 8.32109C8.92402 8.07109 8.40527 7.85234 8.11777 7.66484C7.83027 7.47734 7.68652 7.22109 7.68652 6.89609C7.68652 6.57109 7.80215 6.31484 8.0334 6.12734C8.26465 5.93984 8.59902 5.84609 9.03652 5.84609C9.43652 5.84609 9.74902 5.94297 9.97402 6.13672C10.199 6.33047 10.3615 6.57109 10.4615 6.85859L11.6615 6.37109C11.524 5.93359 11.2709 5.55234 10.9021 5.22734C10.5334 4.90234 10.124 4.72109 9.67402 4.68359V3.74609H8.36152V4.68359C7.73652 4.82109 7.24902 5.09609 6.89902 5.50859C6.54902 5.92109 6.37402 6.38359 6.37402 6.89609C6.37402 7.48359 6.5459 7.95859 6.88965 8.32109C7.2334 8.68359 7.77402 8.99609 8.51152 9.25859C9.29902 9.54609 9.8459 9.80234 10.1521 10.0273C10.4584 10.2523 10.6115 10.5461 10.6115 10.9086C10.6115 11.3211 10.4646 11.6242 10.1709 11.818C9.87715 12.0117 9.52402 12.1086 9.11152 12.1086C8.69902 12.1086 8.3334 11.9805 8.01465 11.7242C7.6959 11.468 7.46152 11.0836 7.31152 10.5711L6.07402 11.0586C6.24902 11.6586 6.5209 12.143 6.88965 12.5117C7.2584 12.8805 7.73652 13.1336 8.32402 13.2711V14.2461ZM8.99902 16.4961C7.96152 16.4961 6.98652 16.2992 6.07402 15.9055C5.16152 15.5117 4.36777 14.9773 3.69277 14.3023C3.01777 13.6273 2.4834 12.8336 2.08965 11.9211C1.6959 11.0086 1.49902 10.0336 1.49902 8.99609C1.49902 7.95859 1.6959 6.98359 2.08965 6.07109C2.4834 5.15859 3.01777 4.36484 3.69277 3.68984C4.36777 3.01484 5.16152 2.48047 6.07402 2.08672C6.98652 1.69297 7.96152 1.49609 8.99902 1.49609C10.0365 1.49609 11.0115 1.69297 11.924 2.08672C12.8365 2.48047 13.6303 3.01484 14.3053 3.68984C14.9803 4.36484 15.5146 5.15859 15.9084 6.07109C16.3021 6.98359 16.499 7.95859 16.499 8.99609C16.499 10.0336 16.3021 11.0086 15.9084 11.9211C15.5146 12.8336 14.9803 13.6273 14.3053 14.3023C13.6303 14.9773 12.8365 15.5117 11.924 15.9055C11.0115 16.2992 10.0365 16.4961 8.99902 16.4961Z" fill="white"/>
</g>
</svg>
