<svg width="164" height="40" viewBox="0 0 164 40" fill="none" xmlns="http://www.w3.org/2000/svg">
<g filter="url(#filter0_d_108_1008)">
<path d="M69.2654 7.60764H66.899V8.61353C66.0094 7.79841 65.0842 7.36484 63.9098 7.36484C61.5079 7.36484 59.4973 9.23788 59.4973 12.0821C59.4973 14.8397 61.4901 16.8168 64.0344 16.8168C65.2621 16.8168 66.1161 16.4179 66.899 15.6721C66.899 16.5393 66.8812 17.1636 66.3118 17.6839C65.8848 18.0655 65.1731 18.2909 64.3013 18.2909C63.3049 18.2909 62.5932 18.0481 62.1128 17.4931H59.4973C60.1378 19.4182 61.7925 20.4068 64.3902 20.4068C65.8314 20.4068 66.9702 20.0772 67.8242 19.3835C68.9095 18.4817 69.2654 17.285 69.2654 15.4987V7.60764ZM64.4436 9.48068C66.0094 9.48068 67.0235 10.6253 67.0235 12.1168C67.0235 13.6777 65.9382 14.7009 64.4792 14.7009C63.0024 14.7009 61.8815 13.6257 61.8815 12.0995C61.8815 10.6773 62.8779 9.48068 64.4436 9.48068Z" fill="white"/>
<path d="M71.4211 16.8168H73.7875V4.05233H71.4211V16.8168Z" fill="white"/>
<path d="M80.3748 7.36484C77.7949 7.36484 75.4819 9.42865 75.4819 12.2209C75.4819 14.9264 77.6526 17.0596 80.3926 17.0596C83.275 17.0596 85.3923 14.8744 85.3923 12.2035C85.3923 9.48068 83.1327 7.36484 80.3748 7.36484ZM80.4104 9.55005C81.9584 9.55005 83.0081 10.66 83.0081 12.2209C83.0081 13.8338 81.8694 14.8744 80.4104 14.8744C78.8803 14.8744 77.8661 13.7644 77.8661 12.2035C77.8661 10.6773 78.9336 9.55005 80.4104 9.55005Z" fill="white"/>
<path d="M89.6741 16.8168H91.1508L93.2325 11.5618L95.2431 16.8168H96.7555L100.189 7.60764H97.8586L95.9548 12.7758L93.9442 7.60764H92.5208L90.4747 12.8452L88.5887 7.60764H86.2579L89.6741 16.8168Z" fill="white"/>
<path d="M101.307 16.8168H103.673V7.60764H101.307V16.8168ZM102.481 3.80952C101.663 3.80952 100.969 4.41653 100.969 5.21431C100.969 6.06411 101.609 6.80986 102.481 6.80986C103.317 6.80986 103.994 6.15083 103.994 5.33571C103.994 4.50324 103.335 3.80952 102.481 3.80952Z" fill="white"/>
<path d="M108.179 7.60764H105.813V16.8168H108.179V12.8973C108.179 11.9434 108.161 11.1109 108.642 10.3652C109.015 9.79286 109.585 9.48068 110.243 9.48068C111.684 9.48068 111.844 10.6427 111.844 12.4637V16.8168H114.211V10.5213C114.211 8.54416 112.734 7.36484 110.972 7.36484C109.923 7.36484 109.086 7.79841 108.179 8.54416V7.60764Z" fill="white"/>
<path d="M125.84 7.60764H123.474V8.61353C122.584 7.79841 121.659 7.36484 120.484 7.36484C118.082 7.36484 116.072 9.23788 116.072 12.0821C116.072 14.8397 118.065 16.8168 120.609 16.8168C121.837 16.8168 122.691 16.4179 123.474 15.6721C123.474 16.5393 123.456 17.1636 122.886 17.6839C122.459 18.0655 121.748 18.2909 120.876 18.2909C119.879 18.2909 119.168 18.0481 118.687 17.4931H116.072C116.712 19.4182 118.367 20.4068 120.965 20.4068C122.406 20.4068 123.545 20.0772 124.399 19.3835C125.484 18.4817 125.84 17.285 125.84 15.4987V7.60764ZM121.018 9.48068C122.584 9.48068 123.598 10.6253 123.598 12.1168C123.598 13.6777 122.513 14.7009 121.054 14.7009C119.577 14.7009 118.456 13.6257 118.456 12.0995C118.456 10.6773 119.452 9.48068 121.018 9.48068Z" fill="white"/>
<path d="M130.593 15.8456C131.447 16.6433 132.319 17.0596 133.511 17.0596C135.913 17.0596 138.031 15.0478 138.031 12.2209C138.031 9.34194 136.002 7.36484 133.565 7.36484C132.426 7.36484 131.447 7.78107 130.593 8.61353V4.05233H128.227V16.8168H130.593V15.8456ZM133.084 9.48068C134.65 9.48068 135.646 10.6947 135.646 12.2035C135.646 13.7817 134.561 14.9437 133.084 14.9437C131.625 14.9437 130.487 13.8511 130.487 12.1862C130.487 10.5733 131.572 9.48068 133.084 9.48068Z" fill="white"/>
<path d="M139.99 11.822C139.99 12.5851 139.955 13.0187 140.079 13.7644C140.453 15.9149 141.859 17.0422 144.136 17.0422C145.453 17.0422 146.431 16.6954 147.179 15.8802C148.175 14.805 148.282 13.5563 148.282 11.8567V7.60764H145.915V12.5157C145.915 14.0766 145.399 14.9264 144.136 14.9264C142.891 14.9264 142.357 14.0592 142.357 12.4116V7.60764H139.99V11.822Z" fill="white"/>
<path d="M157.634 16.8168H160V4.05233H157.634V8.61353C156.78 7.78107 155.801 7.36484 154.662 7.36484C152.207 7.36484 150.214 9.34194 150.214 12.2209C150.214 15.0478 152.314 17.0596 154.716 17.0596C155.908 17.0596 156.797 16.6433 157.634 15.8456V16.8168ZM155.143 9.48068C156.637 9.48068 157.74 10.5733 157.74 12.1862C157.74 13.8685 156.602 14.9437 155.143 14.9437C153.666 14.9437 152.598 13.7817 152.598 12.2035C152.598 10.6947 153.577 9.48068 155.143 9.48068Z" fill="white"/>
<path d="M40.7376 3.80952C42.7474 3.80952 44.712 4.39043 46.383 5.47878C48.0541 6.56713 49.3565 8.11404 50.1256 9.9239C50.8947 11.7338 51.0959 13.7253 50.7039 15.6466C50.3118 17.5679 49.344 19.3328 47.9229 20.718C46.5018 22.1032 44.6912 23.0465 42.72 23.4287C40.7489 23.8109 38.7058 23.6148 36.849 22.8651C34.9922 22.1154 33.4052 20.8459 32.2887 19.2171C31.1721 17.5882 30.5762 15.6733 30.5762 13.7143C30.5763 11.0874 31.6469 8.56814 33.5525 6.71065C35.4581 4.85317 38.0427 3.80961 40.7376 3.80952ZM40.7376 19.6571C41.9435 19.6574 43.1224 19.3091 44.1252 18.6562C45.1279 18.0034 45.9096 17.0754 46.3713 15.9895C46.8329 14.9037 46.9539 13.7088 46.7189 12.5559C46.4838 11.403 45.9033 10.344 45.0507 9.51271C44.1982 8.68144 43.1119 8.11526 41.9292 7.88578C40.7465 7.65631 39.5206 7.77383 38.4065 8.2235C37.2923 8.67317 36.34 9.43478 35.6699 10.412C34.9999 11.3893 34.6422 12.5382 34.642 13.7137C34.6439 15.2891 35.2867 16.7995 36.4295 17.9136C37.5723 19.0276 39.1214 19.6551 40.7376 19.6571Z" fill="white"/>
<path d="M34.4844 14.2466C34.4844 14.7116 34.3197 15.1576 34.0265 15.4864C33.7333 15.8153 33.3356 16 32.9209 16H32.1391C31.7245 15.9998 31.327 15.815 31.0339 15.4862C30.7408 15.1574 30.5762 14.7115 30.5762 14.2466V3.50685C30.5762 2.57689 30.9055 1.68502 31.4919 1.02738C32.0782 0.369734 32.8734 0.000183062 33.7027 0H34.4844V14.2466Z" fill="white"/>
<path d="M7.12661 0C7.74499 0 8.34949 0.17874 8.86365 0.513616C9.37782 0.848493 9.77857 1.32447 10.0152 1.88135C10.2519 2.43823 10.3138 3.051 10.1931 3.64218C10.0725 4.23336 9.77471 4.77639 9.33745 5.20261C8.90019 5.62883 8.34308 5.91908 7.73658 6.03668C7.13007 6.15427 6.50142 6.09392 5.93011 5.86325C5.35879 5.63258 4.87048 5.24196 4.52693 4.74078C4.18337 4.23961 4 3.65038 4 3.04762C4 2.23934 4.32941 1.46417 4.91576 0.892627C5.50211 0.321087 6.29738 0 7.12661 0Z" fill="white"/>
<path d="M17.3036 23.619C14.9548 23.6173 12.6788 22.8254 10.8611 21.3773C9.04339 19.9293 7.7957 17.9141 7.32937 15.6732C6.86304 13.4323 7.20672 11.1033 8.30222 9.08077C9.39771 7.05824 11.1777 5.46648 13.3406 4.57507C15.8264 3.56464 18.6222 3.55405 21.116 4.54562C23.6098 5.53719 25.5985 7.45014 26.6468 9.86575C27.6951 12.2814 27.7175 15.0029 26.7092 17.4346C25.701 19.8663 23.7441 21.81 21.267 22.8405C20.0131 23.3569 18.6651 23.6217 17.3036 23.619ZM17.3036 7.6921C15.7766 7.69404 14.3048 8.24802 13.1736 9.24657C12.0425 10.2451 11.3326 11.6171 11.1818 13.0962C11.031 14.5754 11.4499 16.0564 12.3573 17.252C13.2647 18.4475 14.596 19.2724 16.0928 19.5665C17.5896 19.8606 19.1453 19.6031 20.4581 18.8438C21.7708 18.0846 22.7472 16.8778 23.1976 15.4574C23.648 14.0371 23.5405 12.5046 22.8959 11.1571C22.2512 9.80955 21.1154 8.74315 19.7088 8.16472C18.9479 7.85126 18.1298 7.6905 17.3036 7.6921Z" fill="white"/>
<path d="M17.2898 31.9993C14.9775 32.0019 12.7175 31.3485 10.8019 30.1234C9.56682 29.3343 8.50284 28.3289 7.66733 27.1614C7.47575 26.8938 7.04092 25.8244 6.87476 25.5397L8.29908 24.7619C8.84433 24.4704 9.47636 24.358 10.0963 24.4424C10.7163 24.5267 11.5427 25.5923 11.979 26.0174L11.9945 26.032C12.8202 26.8121 13.8273 27.3989 14.9353 27.7455C16.0434 28.0922 17.2217 28.1893 18.3764 28.0289C19.5311 27.8685 20.6302 27.4552 21.5861 26.8218C22.542 26.1885 23.3282 25.3526 23.882 24.381L27.4513 26.3282C27.2847 26.6133 27.1031 26.8931 26.9123 27.1607C25.6526 28.9252 23.8792 30.3064 21.8067 31.1372C20.3777 31.7095 18.8412 32.0029 17.2894 32" fill="white"/>
</g>
<defs>
<filter id="filter0_d_108_1008" x="0" y="0" width="164" height="40" filterUnits="userSpaceOnUse" color-interpolation-filters="sRGB">
<feFlood flood-opacity="0" result="BackgroundImageFix"/>
<feColorMatrix in="SourceAlpha" type="matrix" values="0 0 0 0 0 0 0 0 0 0 0 0 0 0 0 0 0 0 127 0" result="hardAlpha"/>
<feOffset dy="4"/>
<feGaussianBlur stdDeviation="2"/>
<feComposite in2="hardAlpha" operator="out"/>
<feColorMatrix type="matrix" values="0 0 0 0 0 0 0 0 0 0 0 0 0 0 0 0 0 0 0.25 0"/>
<feBlend mode="normal" in2="BackgroundImageFix" result="effect1_dropShadow_108_1008"/>
<feBlend mode="normal" in="SourceGraphic" in2="effect1_dropShadow_108_1008" result="shape"/>
</filter>
</defs>
</svg>
