<svg width="24" height="26" viewBox="0 0 24 26" fill="none" xmlns="http://www.w3.org/2000/svg">
<path d="M21.913 5.005L14.0671 0.546C12.7859 -0.182 11.2009 -0.182 9.90644 0.546L2.07375 5.005C1.44208 5.36546 0.917914 5.88317 0.553906 6.50613C0.189897 7.1291 -0.00113321 7.83537 5.05724e-06 8.554V17.446C5.05724e-06 18.902 0.792519 20.254 2.07375 20.995L9.91965 25.454C11.2009 26.182 12.7859 26.182 14.0804 25.454L21.9262 20.995C22.5579 20.6345 23.0821 20.1168 23.4461 19.4939C23.8101 18.8709 24.0011 18.1646 24 17.446V8.554C23.9942 7.8352 23.7989 7.1302 23.433 6.50806C23.0672 5.88593 22.5434 5.36799 21.913 5.005ZM11.0028 7.475C11.0028 6.942 11.4518 6.5 11.9934 6.5C12.5349 6.5 12.984 6.942 12.984 7.475V14.3C12.984 14.833 12.5349 15.275 11.9934 15.275C11.4518 15.275 11.0028 14.833 11.0028 14.3V7.475ZM13.2086 19.019C13.1425 19.175 13.0501 19.318 12.9312 19.448C12.7464 19.6299 12.5105 19.7531 12.2539 19.8018C11.9972 19.8504 11.7317 19.8223 11.4915 19.721C11.3198 19.656 11.1877 19.565 11.0556 19.448C10.9367 19.318 10.8442 19.175 10.765 19.019C10.7014 18.8619 10.67 18.6941 10.6725 18.525C10.6725 18.187 10.8046 17.849 11.0556 17.602C11.1877 17.485 11.3198 17.394 11.4915 17.329C11.9802 17.121 12.5614 17.238 12.9312 17.602C13.0501 17.732 13.1425 17.862 13.2086 18.031C13.2746 18.187 13.3143 18.356 13.3143 18.525C13.3143 18.694 13.2746 18.863 13.2086 19.019Z" fill="#D32F2F"/>
</svg>
