<svg width="18" height="18" viewBox="0 0 18 18" fill="none" xmlns="http://www.w3.org/2000/svg">
<mask id="mask0_499_24214" style="mask-type:alpha" maskUnits="userSpaceOnUse" x="0" y="0" width="18" height="18">
<rect width="18" height="18" fill="#D9D9D9"/>
</mask>
<g mask="url(#mask0_499_24214)">
<path d="M8.25 16.2898V9.42734L2.25 5.95859V11.9773C2.25 12.2523 2.31563 12.5023 2.44688 12.7273C2.57812 12.9523 2.7625 13.1336 3 13.2711L8.25 16.2898ZM9.75 16.2898L15 13.2711C15.2375 13.1336 15.4219 12.9523 15.5531 12.7273C15.6844 12.5023 15.75 12.2523 15.75 11.9773V5.95859L9.75 9.42734V16.2898ZM12.7313 5.97734L14.9438 4.68359L9.75 1.70234C9.5125 1.56484 9.2625 1.49609 9 1.49609C8.7375 1.49609 8.4875 1.56484 8.25 1.70234L6.76875 2.54609L12.7313 5.97734ZM9 8.13359L11.2313 6.85859L5.2875 3.40859L3.0375 4.70234L9 8.13359Z" fill="white"/>
</g>
</svg>
