<svg width="18" height="18" viewBox="0 0 18 18" fill="none" xmlns="http://www.w3.org/2000/svg">
<mask id="mask0_499_24207" style="mask-type:alpha" maskUnits="userSpaceOnUse" x="0" y="0" width="18" height="18">
<rect width="18" height="18" fill="#D9D9D9"/>
</mask>
<g mask="url(#mask0_499_24207)">
<path d="M3.75 15.75C3.3375 15.75 2.98438 15.6031 2.69063 15.3094C2.39688 15.0156 2.25 14.6625 2.25 14.25V3.75C2.25 3.3375 2.39688 2.98438 2.69063 2.69063C2.98438 2.39688 3.3375 2.25 3.75 2.25H14.25C14.6625 2.25 15.0156 2.39688 15.3094 2.69063C15.6031 2.98438 15.75 3.3375 15.75 3.75H9.75C8.8625 3.75 8.14063 4.02812 7.58438 4.58437C7.02813 5.14062 6.75 5.8625 6.75 6.75V11.25C6.75 12.1375 7.02813 12.8594 7.58438 13.4156C8.14063 13.9719 8.8625 14.25 9.75 14.25H15.75C15.75 14.6625 15.6031 15.0156 15.3094 15.3094C15.0156 15.6031 14.6625 15.75 14.25 15.75H3.75ZM9.75 12.75C9.3375 12.75 8.98438 12.6031 8.69063 12.3094C8.39688 12.0156 8.25 11.6625 8.25 11.25V6.75C8.25 6.3375 8.39688 5.98438 8.69063 5.69063C8.98438 5.39688 9.3375 5.25 9.75 5.25H15C15.4125 5.25 15.7656 5.39688 16.0594 5.69063C16.3531 5.98438 16.5 6.3375 16.5 6.75V11.25C16.5 11.6625 16.3531 12.0156 16.0594 12.3094C15.7656 12.6031 15.4125 12.75 15 12.75H9.75ZM12 10.125C12.325 10.125 12.5938 10.0187 12.8063 9.80625C13.0188 9.59375 13.125 9.325 13.125 9C13.125 8.675 13.0188 8.40625 12.8063 8.19375C12.5938 7.98125 12.325 7.875 12 7.875C11.675 7.875 11.4063 7.98125 11.1938 8.19375C10.9813 8.40625 10.875 8.675 10.875 9C10.875 9.325 10.9813 9.59375 11.1938 9.80625C11.4063 10.0187 11.675 10.125 12 10.125Z" fill="white"/>
</g>
</svg>
