<svg width="20" height="20" viewBox="0 0 20 20" fill="none" xmlns="http://www.w3.org/2000/svg">
<path d="M12.6992 2H6.72802C3.74244 2 3 2.80871 3 6.03553V15.0514C3 17.1813 4.15316 17.6857 5.55117 16.1644L5.55906 16.1564C6.20673 15.4598 7.19402 15.5158 7.75481 16.2765L8.55254 17.3574C9.19231 18.2142 10.227 18.2142 10.8668 17.3574L11.6645 16.2765C12.2332 15.5078 13.2205 15.4518 13.8681 16.1564C15.274 17.6777 16.4193 17.1733 16.4193 15.0434V6.03553C16.4272 2.80871 15.6847 2 12.6992 2ZM6.38049 10.007C5.94608 10.007 5.59066 9.64669 5.59066 9.20631C5.59066 8.76592 5.94608 8.4056 6.38049 8.4056C6.8149 8.4056 7.17033 8.76592 7.17033 9.20631C7.17033 9.64669 6.8149 10.007 6.38049 10.007ZM6.38049 6.8042C5.94608 6.8042 5.59066 6.44389 5.59066 6.0035C5.59066 5.56312 5.94608 5.2028 6.38049 5.2028C6.8149 5.2028 7.17033 5.56312 7.17033 6.0035C7.17033 6.44389 6.8149 6.8042 6.38049 6.8042ZM13.0546 9.80683H8.71051C8.38667 9.80683 8.11813 9.53459 8.11813 9.20631C8.11813 8.87802 8.38667 8.60578 8.71051 8.60578H13.0546C13.3784 8.60578 13.647 8.87802 13.647 9.20631C13.647 9.53459 13.3784 9.80683 13.0546 9.80683ZM13.0546 6.60403H8.71051C8.38667 6.60403 8.11813 6.33179 8.11813 6.0035C8.11813 5.67522 8.38667 5.40298 8.71051 5.40298H13.0546C13.3784 5.40298 13.647 5.67522 13.647 6.0035C13.647 6.33179 13.3784 6.60403 13.0546 6.60403Z" fill="white"/>
</svg>
