<svg width="18" height="18" viewBox="0 0 18 18" fill="none" xmlns="http://www.w3.org/2000/svg">
<mask id="mask0_499_24200" style="mask-type:alpha" maskUnits="userSpaceOnUse" x="0" y="0" width="18" height="18">
<rect width="18" height="18" fill="#D9D9D9"/>
</mask>
<g mask="url(#mask0_499_24200)">
<path d="M8.2125 13.7605L5.55 11.098L6.6375 10.0105L8.2125 11.5855L11.3625 8.43555L12.45 9.52305L8.2125 13.7605ZM3.75 16.498C3.3375 16.498 2.98438 16.3512 2.69063 16.0574C2.39688 15.7637 2.25 15.4105 2.25 14.998V4.49805C2.25 4.08555 2.39688 3.73242 2.69063 3.43867C2.98438 3.14492 3.3375 2.99805 3.75 2.99805H4.5V1.49805H6V2.99805H12V1.49805H13.5V2.99805H14.25C14.6625 2.99805 15.0156 3.14492 15.3094 3.43867C15.6031 3.73242 15.75 4.08555 15.75 4.49805V14.998C15.75 15.4105 15.6031 15.7637 15.3094 16.0574C15.0156 16.3512 14.6625 16.498 14.25 16.498H3.75ZM3.75 14.998H14.25V7.49805H3.75V14.998Z" fill="white"/>
</g>
</svg>
