<svg width="14" height="16" viewBox="0 0 14 16" fill="none" xmlns="http://www.w3.org/2000/svg">
<path d="M7 9.49689C6.7875 9.49689 6.60938 9.42501 6.46563 9.28126C6.32188 9.13751 6.25 8.95939 6.25 8.74689C6.25 8.53439 6.32188 8.35626 6.46563 8.21251C6.60938 8.06876 6.7875 7.99689 7 7.99689C7.2125 7.99689 7.39063 8.06876 7.53438 8.21251C7.67813 8.35626 7.75 8.53439 7.75 8.74689C7.75 8.95939 7.67813 9.13751 7.53438 9.28126C7.39063 9.42501 7.2125 9.49689 7 9.49689ZM4 9.49689C3.7875 9.49689 3.60938 9.42501 3.46562 9.28126C3.32187 9.13751 3.25 8.95939 3.25 8.74689C3.25 8.53439 3.32187 8.35626 3.46562 8.21251C3.60938 8.06876 3.7875 7.99689 4 7.99689C4.2125 7.99689 4.39062 8.06876 4.53438 8.21251C4.67812 8.35626 4.75 8.53439 4.75 8.74689C4.75 8.95939 4.67812 9.13751 4.53438 9.28126C4.39062 9.42501 4.2125 9.49689 4 9.49689ZM10 9.49689C9.7875 9.49689 9.60938 9.42501 9.46563 9.28126C9.32188 9.13751 9.25 8.95939 9.25 8.74689C9.25 8.53439 9.32188 8.35626 9.46563 8.21251C9.60938 8.06876 9.7875 7.99689 10 7.99689C10.2125 7.99689 10.3906 8.06876 10.5344 8.21251C10.6781 8.35626 10.75 8.53439 10.75 8.74689C10.75 8.95939 10.6781 9.13751 10.5344 9.28126C10.3906 9.42501 10.2125 9.49689 10 9.49689ZM7 12.4969C6.7875 12.4969 6.60938 12.425 6.46563 12.2813C6.32188 12.1375 6.25 11.9594 6.25 11.7469C6.25 11.5344 6.32188 11.3563 6.46563 11.2125C6.60938 11.0688 6.7875 10.9969 7 10.9969C7.2125 10.9969 7.39063 11.0688 7.53438 11.2125C7.67813 11.3563 7.75 11.5344 7.75 11.7469C7.75 11.9594 7.67813 12.1375 7.53438 12.2813C7.39063 12.425 7.2125 12.4969 7 12.4969ZM4 12.4969C3.7875 12.4969 3.60938 12.425 3.46562 12.2813C3.32187 12.1375 3.25 11.9594 3.25 11.7469C3.25 11.5344 3.32187 11.3563 3.46562 11.2125C3.60938 11.0688 3.7875 10.9969 4 10.9969C4.2125 10.9969 4.39062 11.0688 4.53438 11.2125C4.67812 11.3563 4.75 11.5344 4.75 11.7469C4.75 11.9594 4.67812 12.1375 4.53438 12.2813C4.39062 12.425 4.2125 12.4969 4 12.4969ZM10 12.4969C9.7875 12.4969 9.60938 12.425 9.46563 12.2813C9.32188 12.1375 9.25 11.9594 9.25 11.7469C9.25 11.5344 9.32188 11.3563 9.46563 11.2125C9.60938 11.0688 9.7875 10.9969 10 10.9969C10.2125 10.9969 10.3906 11.0688 10.5344 11.2125C10.6781 11.3563 10.75 11.5344 10.75 11.7469C10.75 11.9594 10.6781 12.1375 10.5344 12.2813C10.3906 12.425 10.2125 12.4969 10 12.4969ZM1.75 15.4969C1.3375 15.4969 0.984375 15.35 0.690625 15.0563C0.396875 14.7625 0.25 14.4094 0.25 13.9969V3.49689C0.25 3.08439 0.396875 2.73126 0.690625 2.43751C0.984375 2.14376 1.3375 1.99689 1.75 1.99689H2.5V0.496887H4V1.99689H10V0.496887H11.5V1.99689H12.25C12.6625 1.99689 13.0156 2.14376 13.3094 2.43751C13.6031 2.73126 13.75 3.08439 13.75 3.49689V13.9969C13.75 14.4094 13.6031 14.7625 13.3094 15.0563C13.0156 15.35 12.6625 15.4969 12.25 15.4969H1.75ZM1.75 13.9969H12.25V6.49689H1.75V13.9969Z" fill="white"/>
</svg>
