<svg width="16" height="16" viewBox="0 0 16 16" fill="none" xmlns="http://www.w3.org/2000/svg">
<path d="M2.375 0.5C1.87772 0.5 1.40081 0.697544 1.04917 1.04917C0.697544 1.40081 0.5 1.87772 0.5 2.375V3.86625C0.5 4.51625 0.8375 5.11875 1.38875 5.46L6.22125 8.4475C5.48621 8.84354 4.90437 9.47356 4.56793 10.2377C4.23148 11.0019 4.15968 11.8565 4.36391 12.666C4.56813 13.4756 5.03669 14.1939 5.69535 14.707C6.354 15.2201 7.16506 15.4988 8 15.4988C8.83494 15.4988 9.646 15.2201 10.3047 14.707C10.9633 14.1939 11.4319 13.4756 11.6361 12.666C11.8403 11.8565 11.7685 11.0019 11.4321 10.2377C11.0956 9.47356 10.5138 8.84354 9.77875 8.4475L14.6112 5.46C14.8829 5.29202 15.1071 5.05745 15.2626 4.77854C15.4181 4.49962 15.4998 4.1856 15.5 3.86625V2.375C15.5 1.87772 15.3025 1.40081 14.9508 1.04917C14.5992 0.697544 14.1223 0.5 13.625 0.5H2.375ZM5.5 6.5325V1.75H10.5V6.5325L8.32875 7.875C8.22998 7.93609 8.11614 7.96845 8 7.96845C7.88386 7.96845 7.77002 7.93609 7.67125 7.875L5.5 6.5325ZM8 9.25C8.66304 9.25 9.29893 9.51339 9.76777 9.98223C10.2366 10.4511 10.5 11.087 10.5 11.75C10.5 12.413 10.2366 13.0489 9.76777 13.5178C9.29893 13.9866 8.66304 14.25 8 14.25C7.33696 14.25 6.70107 13.9866 6.23223 13.5178C5.76339 13.0489 5.5 12.413 5.5 11.75C5.5 11.087 5.76339 10.4511 6.23223 9.98223C6.70107 9.51339 7.33696 9.25 8 9.25Z" fill="white"/>
</svg>
