<svg width="60" height="42" viewBox="0 0 60 42" fill="none" xmlns="http://www.w3.org/2000/svg">
<path d="M47 5C49.5712 5 52.0846 5.76244 54.2224 7.19089C56.3602 8.61935 58.0265 10.6497 59.0104 13.0251C59.9944 15.4006 60.2518 18.0144 59.7502 20.5362C59.2486 23.0579 58.0105 25.3743 56.1924 27.1924C54.3743 29.0105 52.0579 30.2486 49.5362 30.7502C47.0144 31.2518 44.4006 30.9944 42.0251 30.0104C39.6497 29.0265 37.6194 27.3602 36.1909 25.2224C34.7624 23.0846 34 20.5712 34 18C34.0001 14.5522 35.3698 11.2457 37.8077 8.80773C40.2457 6.36978 43.5522 5.00011 47 5ZM47 25.8C48.5427 25.8003 50.0509 25.3432 51.3338 24.4863C52.6167 23.6295 53.6167 22.4114 54.2073 20.9862C54.798 19.5611 54.9527 17.9927 54.652 16.4796C54.3513 14.9665 53.6086 13.5765 52.5179 12.4854C51.4272 11.3944 50.0375 10.6513 48.5244 10.3501C47.0114 10.0489 45.443 10.2032 44.0176 10.7933C42.5923 11.3835 41.3739 12.3832 40.5167 13.6658C39.6594 14.9484 39.2018 16.4564 39.2016 17.9992C39.204 20.0669 40.0264 22.0493 41.4884 23.5115C42.9504 24.9738 44.9323 25.7973 47 25.8Z" fill="white"/>
<path d="M39 18.6986C39 19.309 38.7893 19.8944 38.4141 20.3259C38.039 20.7575 37.5302 21 36.9997 21H35.9995C35.4691 20.9998 34.9606 20.7572 34.5856 20.3256C34.2106 19.8941 34 19.3088 34 18.6986V4.60274C34 3.38217 34.4214 2.21159 35.1715 1.34843C35.9216 0.485277 36.9389 0.000240269 37.9998 0H39V18.6986Z" fill="white"/>
<path d="M4 0C4.79112 0 5.56448 0.234596 6.22228 0.674121C6.88008 1.11365 7.39277 1.73836 7.69552 2.46927C7.99827 3.20017 8.07748 4.00444 7.92314 4.78036C7.7688 5.55628 7.38784 6.26902 6.82843 6.82843C6.26902 7.38784 5.55628 7.7688 4.78036 7.92314C4.00444 8.07748 3.20017 7.99827 2.46927 7.69552C1.73836 7.39277 1.11365 6.88008 0.674121 6.22228C0.234596 5.56448 0 4.79112 0 4C0 2.93913 0.421427 1.92172 1.17157 1.17157C1.92172 0.421427 2.93913 0 4 0Z" fill="white"/>
<path d="M17.0199 31C14.015 30.9977 11.1032 29.9583 8.7777 28.0577C6.45222 26.1572 4.856 23.5123 4.2594 20.5711C3.6628 17.6298 4.1025 14.5731 5.50401 11.9185C6.90552 9.26394 9.1827 7.17475 11.9499 6.00479C15.1301 4.6786 18.7068 4.6647 21.8973 5.96613C25.0877 7.26756 27.6319 9.7783 28.973 12.9488C30.3141 16.1193 30.3428 19.6913 29.0529 22.8829C27.763 26.0745 25.2594 28.6257 22.0904 29.9781C20.4862 30.6559 18.7617 31.0035 17.0199 31ZM17.0199 10.0959C15.0663 10.0984 13.1834 10.8255 11.7362 12.1361C10.2891 13.4467 9.38097 15.2474 9.188 17.1888C8.99503 19.1303 9.53098 21.0741 10.6919 22.6432C11.8528 24.2124 13.5559 25.295 15.4708 25.681C17.3857 26.0671 19.376 25.729 21.0555 24.7325C22.735 23.736 23.984 22.1521 24.5603 20.2879C25.1366 18.4237 24.999 16.4122 24.1743 14.6436C23.3496 12.875 21.8965 11.4754 20.0969 10.7162C19.1235 10.3048 18.0769 10.0938 17.0199 10.0959Z" fill="white"/>
<path d="M17.0022 41.9991C14.0439 42.0025 11.1526 41.1449 8.70193 39.537C7.12187 38.5012 5.76068 37.1816 4.69177 35.6494C4.44668 35.2981 3.89038 33.8945 3.6778 33.5209L5.5 32.5C6.19756 32.1174 7.00614 31.9699 7.79928 32.0806C8.59241 32.1913 9.64975 33.5899 10.2079 34.1478L10.2276 34.167C11.2841 35.1909 12.5725 35.961 13.99 36.416C15.4076 36.8711 16.9151 36.9984 18.3923 36.7879C19.8696 36.5774 21.2757 36.0349 22.4986 35.2036C23.7215 34.3724 24.7273 33.2753 25.4359 32L30.0022 34.5558C29.7892 34.9299 29.5568 35.2972 29.3126 35.6485C27.7011 37.9643 25.4323 39.7771 22.7808 40.8675C20.9527 41.6187 18.987 42.0038 17.0017 42" fill="white"/>
</svg>
