<svg width="13" height="13" viewBox="0 0 13 13" fill="none" xmlns="http://www.w3.org/2000/svg">
<path d="M9.625 0.25H3.375C1.65 0.25 0.25 1.64375 0.25 3.3625V7.725C0.25 9.44375 1.65 10.8375 3.375 10.8375H4.3125C4.48125 10.8375 4.70625 10.95 4.8125 11.0875L5.75 12.3313C6.1625 12.8813 6.8375 12.8813 7.25 12.3313L8.1875 11.0875C8.30625 10.9312 8.49375 10.8375 8.6875 10.8375H9.625C11.35 10.8375 12.75 9.44375 12.75 7.725V3.3625C12.75 1.64375 11.35 0.25 9.625 0.25ZM4 6.5C3.65 6.5 3.375 6.21875 3.375 5.875C3.375 5.53125 3.65625 5.25 4 5.25C4.34375 5.25 4.625 5.53125 4.625 5.875C4.625 6.21875 4.35 6.5 4 6.5ZM6.5 6.5C6.15 6.5 5.875 6.21875 5.875 5.875C5.875 5.53125 6.15625 5.25 6.5 5.25C6.84375 5.25 7.125 5.53125 7.125 5.875C7.125 6.21875 6.85 6.5 6.5 6.5ZM9 6.5C8.65 6.5 8.375 6.21875 8.375 5.875C8.375 5.53125 8.65625 5.25 9 5.25C9.34375 5.25 9.625 5.53125 9.625 5.875C9.625 6.21875 9.35 6.5 9 6.5Z" fill="#A4A5F8"/>
</svg>
