<svg width="13" height="13" viewBox="0 0 13 13" fill="none" xmlns="http://www.w3.org/2000/svg">
<path d="M9.11875 0.25H3.88125C1.60625 0.25 0.25 1.60625 0.25 3.88125V9.1125C0.25 11.3938 1.60625 12.75 3.88125 12.75H9.1125C11.3875 12.75 12.7437 11.3938 12.7437 9.11875V3.88125C12.75 1.60625 11.3938 0.25 9.11875 0.25ZM5.86875 9.625C5.86875 9.6875 5.85625 9.74375 5.83125 9.80625C5.78125 9.91875 5.69375 10.0125 5.575 10.0625C5.51791 10.0877 5.45617 10.1008 5.39375 10.1008C5.33133 10.1008 5.26959 10.0877 5.2125 10.0625C5.15669 10.0388 5.10581 10.0049 5.0625 9.9625L3.21875 8.11875C3.13157 8.03054 3.08269 7.91152 3.08269 7.7875C3.08269 7.66348 3.13157 7.54446 3.21875 7.45625C3.4 7.275 3.7 7.275 3.88125 7.45625L4.925 8.5V3.375C4.925 3.11875 5.1375 2.90625 5.39375 2.90625C5.65 2.90625 5.86875 3.11875 5.86875 3.375V9.625ZM9.775 5.55C9.68125 5.64375 9.5625 5.6875 9.44375 5.6875C9.325 5.6875 9.20625 5.64375 9.1125 5.55L8.06875 4.50625V9.625C8.06875 9.88125 7.85625 10.0938 7.6 10.0938C7.34375 10.0938 7.13125 9.88125 7.13125 9.625V3.375C7.13125 3.3125 7.14375 3.25625 7.16875 3.19375C7.21875 3.08125 7.30625 2.9875 7.425 2.9375C7.5375 2.8875 7.66875 2.8875 7.78125 2.9375C7.8375 2.9625 7.8875 2.99375 7.93125 3.0375L9.775 4.88125C9.95625 5.06875 9.95625 5.36875 9.775 5.55Z" fill="#A4A5F8"/>
</svg>
